<svg width="141" height="126" viewBox="0 0 141 126" fill="none" xmlns="http://www.w3.org/2000/svg">
<path d="M15.992 0.847992L20.568 3.664C20.568 25.2533 23.56 45.728 29.544 65.088C31.5387 60.6293 36.9947 51.1253 45.912 36.576C54.8293 22.0267 62.456 10.8213 68.792 2.96C70.2 1.31733 72.7227 0.495996 76.36 0.495996C77.064 0.495996 77.416 0.78933 77.416 1.376C77.416 1.84533 74.776 6.36266 69.496 14.928C64.3333 23.376 58.4667 34.0533 51.896 46.96C45.3253 59.8667 40.7493 71.424 38.168 81.632C37.464 88.4373 37.112 95.1253 37.112 101.696C37.112 112.139 37.288 119.413 37.64 123.52L37.816 125.456C37.816 125.808 37.288 125.984 36.232 125.984C35.2933 125.984 33.8853 125.691 32.008 125.104C30.248 124.635 29.0747 124.048 28.488 123.344C26.024 110.203 24.6747 96.416 24.44 81.984C19.0427 70.4853 13.9973 57.6373 9.304 43.44C4.61067 29.1253 1.736 17.3333 0.680001 8.06399L15.992 0.847992ZM140.496 7.712L134.688 22.848C128.938 19.7973 122.661 18.272 115.856 18.272C109.05 18.272 103.536 19.504 99.3115 21.968C95.2048 24.432 93.1515 28.304 93.1515 33.584C93.1515 40.0373 98.5488 47.3707 109.344 55.584C113.802 58.9867 118.261 62.5067 122.72 66.144C127.178 69.664 130.992 73.7707 134.16 78.464C137.328 83.04 138.912 87.3813 138.912 91.488C138.912 95.5947 138.208 99.3493 136.8 102.752C135.509 106.037 133.28 109.44 130.112 112.96C126.944 116.48 122.016 119.355 115.328 121.584C108.64 123.813 101.13 124.928 92.7995 124.928C84.4688 124.928 77.0768 123.931 70.6235 121.936C69.3328 119.941 68.6875 118.181 68.6875 116.656C68.6875 115.131 68.7462 114.368 68.8635 114.368C69.0982 114.368 69.9782 114.603 71.5035 115.072C76.3142 116.363 81.1248 117.008 85.9355 117.008C95.7915 117.008 103.77 115.013 109.872 111.024C116.09 107.035 119.2 101.931 119.2 95.712C119.2 88.672 114.154 81.104 104.064 73.008C99.8395 69.6053 95.6155 66.2027 91.3915 62.8C81.3008 54.704 76.2555 46.784 76.2555 39.04C76.2555 34.112 78.3088 29.3013 82.4155 24.608C91.4502 14.1653 109.813 7.00799 137.504 3.13599L140.496 7.712Z" fill="#F39930"/>
</svg>
